<?xml version="1.0" encoding="UTF-8" standalone="no"?>
<!-- Created with Inkscape (http://www.inkscape.org/) -->

<svg
   width="639.63708mm"
   height="637.95752mm"
   viewBox="0 0 639.63709 637.95752"
   version="1.1"
   id="svg1"
   xml:space="preserve"
   xmlns="http://www.w3.org/2000/svg"
   xmlns:svg="http://www.w3.org/2000/svg"
   xmlns:serif="http://www.serif.com/"><defs
     id="defs1" /><g
     id="layer1"
     transform="translate(226.28571,166.65637)"
     style="display:inline"><rect
       style="display:none;fill:#000080;stroke:#ffffff;stroke-width:3;stroke-linejoin:round"
       id="rect1"
       width="831.75293"
       height="723.19696"
       x="-299.67566"
       y="-215.58301" /><g
       style="clip-rule:evenodd;fill-rule:evenodd;stroke-linejoin:round;stroke-miterlimit:2;fill:#fff1e8;fill-opacity:1"
       id="g1"
       transform="matrix(0.26458333,0,0,0.26458333,-191.22283,-132.77033)"><g
         transform="translate(-12415.9,-5461.68)"
         id="g3"
         style="fill:#fff1e8;fill-opacity:1">
        <g
   id="g2"
   style="fill:#fff1e8;fill-opacity:1">
            <g
   id="Hand"
   transform="translate(3474.92,-372.367)"
   style="fill:#fff1e8;fill-opacity:1">
                <path
   d="m 10050.9,6296.33 c 2.8,0 5.6,0.25 8.6,0.78 15.4,2.76 34.7,17.6 46.8,37.47 11.3,18.73 15.5,40.7 9.9,57.09 0.4,2.61 1.2,7.53 1.3,10.17 l -0.6,7.07 -0.3,0.93 c 0.5,3.12 1.5,9.9 1.1,13.43 -2,19.25 0.5,38.57 -1.5,57.75 -3.7,35.69 3.7,72.28 -0.2,107.78 -2.8,25.96 -3.6,57.63 0.1,83.55 3.4,23.95 5.8,57.66 1.9,81.24 -3.5,21.52 -6.4,71.79 -1,93.36 l 8.2,8.65 c 8.7,-2.79 14.5,-9.4 18.3,-17.16 6.1,-12.4 7.7,-27.67 6.5,-41.16 -1.2,-14.25 3.9,-30.88 3.9,-45.91 0,-32.99 -9.2,-77.01 -7.6,-108.19 1,-19.91 -0.8,-40.56 1,-60.64 0.4,-4.17 1.4,-10.4 1.9,-16.57 0.3,-2.81 0.2,-7.59 0.2,-8.32 -2.7,-8.43 -4.1,-15.99 -4.1,-24.62 0,-43.02 5.8,-88.34 13,-130.74 2.3,-13.71 5.6,-29.03 14.3,-40.62 l 4.7,-4.89 6.4,-4.08 c 8.4,-4.1 22.2,-5.2 22.2,-5.2 5.5,-0.29 10.9,1.33 15.2,4.55 0,0 12.6,9.5 17.8,15.33 10.8,12.29 18.1,29.38 23.8,44.23 13.6,35.98 16.8,77.6 19.9,115.85 3.5,43.64 0.1,88.97 7.3,132.15 10.5,63.89 11.4,141.51 -10.1,203.29 -10.1,28.9 -37.6,58.74 -57,78.37 l -6.7,5.39 c -2.8,1.74 -5.8,3.2 -9.1,4.42 -4,1.5 -8.6,2.37 -12,3.81 -29,12.15 -56.2,10.61 -86.4,17.27 -5.6,1.23 -11.4,1.29 -17.3,0.81 -2.7,-0.22 -5.5,-1.21 -8.1,-0.64 -29.6,6.55 -62.5,7.44 -93.81,11.75 -26.12,3.59 -51.28,9.42 -71.01,26.59 -4.89,4.25 -10.44,7.92 -16.04,11.53 -4.99,3.2 -10.25,6.09 -13.88,10.51 -14.82,18.05 -15.88,41.21 -21.44,62.47 -3.59,13.74 5.79,35.04 13.32,47.48 29.61,48.93 79.25,69.44 137.76,61.45 3.6,-0.5 6.5,-3.04 9.5,-5.14 4.5,-3.06 8.8,-6.24 13.1,-8.78 8,-4.77 18.2,-11.23 27.1,-18.99 6.7,-5.77 13,-12.06 15,-19.35 2.9,-9.91 7.5,-17.3 5.8,-28.14 -1.5,-9.39 -7.7,-18.22 -15.5,-26.13 -13.7,-13.86 -32.5,-24.73 -48.1,-28.44 -6.3,-1.53 -14.6,-3.18 -22.7,-3.16 -4.39,0.01 -8.96,-0.06 -12.06,2.53 -11.58,9.69 -23.28,19.91 -15.91,34.01 0.36,0.69 1.7,2.57 2.44,3.59 4.52,3.2 7.58,7.85 8.76,12.97 0.14,0.1 0.28,0.2 0.42,0.3 0.67,0.46 1.1,1.41 2.05,1.27 2.42,-0.36 7.19,-1.05 9.59,-1.4 2.17,-2.06 5.21,-4.87 7.01,-6.08 l 8.5,-3.94 7.8,-0.86 7.2,1.44 7.8,4.59 3.3,3.63 2.9,5.19 c 4.4,11.34 -1.6,23.99 -13.5,28.24 0,0.03 -0.1,0.05 -0.2,0.07 -2.4,2.16 -5.3,4.76 -6.1,5.26 -7.4,4.41 -18.8,5.97 -27.32,7.23 -12.31,1.81 -22.35,-1.01 -31.32,-6.18 -7,-4.03 -12.83,-10.49 -19.74,-14.62 -2.57,-1.54 -12.45,-9.68 -15.73,-14.81 l -2.38,-4.66 -1.38,-5.43 0.05,-0.53 c -1.23,-2.09 -3.45,-5.93 -4.21,-7.61 -6.67,-14.9 -1.36,-40.2 7.57,-52.17 19.89,-26.64 52.23,-34.15 83.46,-41.04 5.6,-1.25 11.6,-1.41 17.6,-1.15 3.5,0.15 7.1,1 10.3,0.15 34.5,-8.99 70.6,-9.53 105.9,-12.28 30.3,-2.36 60.1,-6.31 87,-22.41 30.2,-18.08 45.9,-43.37 57.5,-71.14 13.4,-32.07 21.7,-67.33 36.4,-100.99 6.2,-14.27 24.9,-37.45 44.8,-46.4 9.5,-4.26 19.3,-5.77 28.8,-4.2 9.7,1.63 19.5,6.4 28.1,16.64 8.6,10.3 12.7,22.48 14.3,35.48 1.7,12.49 0.3,25.91 3.2,37.12 14.3,54.53 -2.9,116.87 -12.3,170.65 -3.1,17.78 -12.1,49.3 -23.8,63.35 -12.2,14.6 -27.6,25.1 -43,35.35 -11.8,7.82 -23.8,15.39 -32.9,26.47 -4.4,5.44 -6.4,12.28 -8.7,18.88 -2.6,7.14 -5.3,14.2 -9,20.61 -17.3,29.89 -25.6,65.35 -36.1,98.1 -4.6,14.34 -6.9,30.02 -10.3,45.27 -4.3,18.68 -10.2,36.71 -21.3,52.21 -41.6,58.24 -113.6,79.44 -184.1,90.67 -102.4,16.34 -217.63,8.56 -313.26,-29.38 -12.24,-4.85 -33.41,-19.6 -42.45,-33.85 -2.01,-3.17 -3.54,-6.35 -4.6,-9.45 l -1.72,-7.91 0.17,-6.85 -1.1,-3.07 0.07,-6.54 2.46,-7.31 3.89,-5.33 4.27,-3.56 10.43,-4.46 c 19.69,-4.96 53.12,0.96 73.37,3.94 48.13,7.09 101.52,15.48 150.13,8.14 2.61,-0.39 4.45,-2.46 6.69,-3.64 3.34,-1.74 6.77,-3.23 10.36,-4.26 11.88,-3.41 25.56,-10.53 35.26,-20.25 6.83,-6.87 12.13,-15.14 9.33,-24.71 -2.8,-10.02 -14.47,-18.32 -26.57,-15.43 -17.95,4.29 -33.22,14.23 -51.89,18.06 -71,14.56 -162.08,2.16 -216.16,-39.24 -14.99,-11.47 -39.1,-33.81 -47.99,-51.87 -22.71,-46.19 -15.7,-98.83 -23.85,-148.2 -9.17,-55.57 -16.66,-110.3 -16.66,-164.93 0,-26.36 1.74,-52.7 5.88,-79.1 5.34,-34.06 -2.17,-70.91 3.46,-105.01 3.4,-20.57 2.39,-41.93 2.36,-63.27 -0.04,-24.73 1.13,-49.41 8.89,-73.14 2.97,-9.1 5.46,-20.42 9.7,-30.39 4.08,-9.55 9.67,-18.01 17.14,-24.26 5.14,-4.31 15.66,-10.49 21.8,-12.09 16.41,-4.29 28.4,-2.33 37.32,1.96 l 6.46,3.88 5.39,4.74 c 4.09,4.29 7.39,9.61 9.8,15.84 3.26,8.42 4.89,19 5.85,30.14 1,11.67 1,24.2 4.25,33.56 2.91,8.34 3.52,17.61 3.13,27.1 -0.33,8.01 -2.04,16.28 -0.2,23.35 3.36,12.82 0.42,27.51 0.42,40.42 0,31.16 -1.49,64.75 3.84,95.36 2.78,15.94 3.15,31.11 4.82,45.47 1.46,12.58 3.97,24.47 12.84,35.41 3.38,-1.51 6.67,-3.28 9.67,-5.93 6.15,-5.44 7.96,-14.48 9.32,-23.56 1.99,-13.24 1.64,-27.13 1.64,-37.68 0,-36.07 1.72,-71.71 1.72,-107.87 0,-24.41 -6.29,-52.05 -1.27,-76.05 3.65,-17.48 -1.49,-36.1 1.03,-53.72 2.24,-15.71 4.4,-50.8 2.44,-64.6 -1.71,-11.98 3.28,-33.92 6.81,-45.73 7.85,-26.29 8.99,-53.75 28.35,-76.91 3.94,-4.71 6.78,-11.06 10.9,-15.89 2.43,-2.86 5.14,-5.41 8.17,-7.57 l 7.77,-4.33 11.67,-2.97 c 3.65,-0.39 7.67,-0.35 12.16,0.31 28.28,4.16 41.47,20.78 46.97,43.18 5.13,20.86 0.56,49.01 3.72,68.17 8.15,49.39 -6.47,103.31 2.64,152.69 1.2,6.5 0.96,13.53 0.22,20.63 -0.53,4.97 -1.98,10 -0.83,14.42 2.53,9.66 4.74,41.69 3.99,64.5 -0.39,11.87 -1.87,21.62 -3.61,26.35 -1.5,4.07 0.29,9.09 0.74,14.03 0.71,7.96 0.71,15.81 -1.12,22.8 -0.7,2.68 0.59,5.46 1.01,8.26 0.86,5.84 1.27,11.63 0.44,17.18 -1.85,12.39 -0.99,26.42 3.46,37.81 2.21,5.64 5.02,10.78 9.91,13.28 3.86,1.98 8.63,1.66 14.45,-0.19 1.14,-2.98 3.93,-10.33 4.97,-13.31 7.83,-22.47 6.23,-50.22 6.23,-74.14 0,-71.51 -0.04,-146.22 -7.47,-217.37 -3.9,-37.31 -0.21,-74.83 -5.59,-111.88 -3.44,-23.68 3.54,-46.01 5.75,-69.22 1.57,-16.51 7.91,-39.32 21.31,-51.13 6,-5.36 12.8,-13.62 21.1,-18.85 7.5,-4.66 15.8,-7.6 25.2,-7.6 z"
   style="fill:#fff1e8;fill-opacity:1"
   id="path1" />
            </g>
            <g
   id="human-made---circle"
   serif:id="human made - circle"
   transform="matrix(0.998418,0,0,0.998418,12295.2,4736.96)"
   style="fill:#fff1e8;fill-opacity:1">
                <path
   d="m 940.472,2779.72 c -1.813,5.5 -3.697,10.68 -5.636,15.39 -5.636,13.68 -12.288,23.77 -18.44,28.56 l -5.381,3.29 -6.902,1.95 -7.696,-0.47 -6.819,-2.9 -3.989,-3.48 -2.979,-5.01 c -1.517,-3.8 -2.282,-11.95 -0.788,-23.01 5.086,-37.67 31.307,-124.82 34.851,-137.22 2.274,-7.96 10.583,-12.58 18.544,-10.31 2.78,0.8 5.153,2.33 6.966,4.33 l 0.496,-0.06 c 1.115,0 3.161,-0.01 4.961,0.19 l 4.663,1.03 3.865,1.91 3.337,2.94 3.057,5.56 0.829,7.64 c -0.007,0.26 -0.018,0.53 -0.031,0.81 l 0.43,2 -0.148,4.84 -1.244,4.53 c -0.092,0.23 -0.186,0.46 -0.281,0.69 -0.731,5.48 -1.758,12.09 -3.043,19.41 0.138,1.3 0.239,2.35 0.293,2.92 1.066,4.71 1.668,10.32 3.004,15.6 0.708,2.79 1.165,6.04 4.768,6.56 7.352,1.05 13.63,2.51 19.599,3.18 5.965,0.67 11.475,0.23 18.212,-4.06 2.39,-1.52 4.83,-4.19 7.1,-7.01 0.89,-2.95 1.76,-5.69 2.61,-8.19 0.33,-2.38 0.9,-4.82 1.61,-7.26 0.92,-3.18 2.28,-6.38 2.65,-9.42 l 2.46,-7.48 2.77,-4.01 3.05,-3.08 c 4.6,-4 11.31,-7.18 17.5,-8.24 l 8.81,-0.16 7.01,2.26 5.79,4.58 2.26,3.22 1.57,3.53 0.95,6.16 c 0.03,3.3 -0.75,9.97 -2.3,18.82 -5.38,30.7 -19.8,91.82 -27.68,118.53 -2.6,8.83 -5.08,14.67 -6.29,16.47 l -3.09,3.71 -3.61,2.84 -7.47,3.15 c -6.06,1.45 -13.11,0.64 -18.47,-1.42 l -3.617,-1.94 -2.714,-2.38 -2.141,-2.85 -1.758,-3.72 c -1.261,-3.54 -2.024,-9.99 -1.463,-18.53 0.557,-8.48 2.222,-19.87 4.509,-32.34 -0.044,-0.19 -0.091,-0.36 -0.14,-0.53 -1.893,-6.31 -6.672,-10.22 -12.193,-12.79 -7.393,-3.45 -16.149,-4.65 -24.028,-4.65 -8.107,0 -13.419,2.42 -18.183,5.92 z m 955.368,-426.07 c 6.7,-2.96 14.35,-3.87 22.59,-3.45 7.09,0.36 14.71,1.72 22.16,2.23 6.25,0.43 12.59,0.85 17.05,-4.44 6.14,-7.29 9.23,-12.29 9.06,-16.81 -0.11,-2.95 -2.05,-5.08 -3.87,-7.3 -2.53,-3.07 -5.43,-5.99 -8.08,-9.03 -7.33,-8.38 -12.81,-17.65 -12.81,-29.42 l 0.61,-4.6 1.45,-4.02 c 2.26,-4.99 8.02,-12.99 9.86,-15.29 8.44,-10.55 16.75,-15.04 24.42,-16.44 7.88,-1.45 15.75,0.21 23.83,4.68 7.71,4.26 15.98,11.63 25.59,19.39 10.4,8.39 22.4,17.77 34.2,24.1 5.24,2.82 37.76,24.67 51.12,35.24 3.82,3.03 6.42,5.55 7.53,6.93 l 2.99,5.63 c 1.26,4.19 1.59,7.63 1.45,10.36 l -0.59,4.11 -1.63,4.35 -2.27,3.44 -2.92,2.83 -6.3,3.29 c -3.56,1.14 -8.44,1.48 -14.27,0.59 -7.21,-1.11 -17.11,-4.36 -26.85,-6.23 -3.93,-0.75 -7.82,-1.31 -11.31,-0.94 -1.63,0.17 -3.17,0.59 -3.85,2.37 -2.39,6.29 0.62,13.49 3.49,19.78 4.26,9.35 9.9,17.08 11.63,20.12 l 2.35,6.32 0.15,3.34 -0.61,3.44 -1.53,3.58 -2.5,3.34 -3.13,2.54 -3.19,1.58 -6.89,1.1 -7.04,-1.31 c -5.98,-1.87 -13.67,-5.4 -21.21,-6.74 -2.69,-0.48 -5.55,-1.34 -7.4,0.97 -3.75,4.69 -5.81,8.46 -6,11.93 -0.23,4.02 2.43,6.89 4.76,9.61 3.18,3.71 6.67,7.02 9.33,10.16 2.41,2.86 4.32,5.69 5.6,8.44 l 1.46,4 0.79,4.74 -0.18,4.33 -1.03,4.28 -4.09,7.28 -5.17,4.78 -6.94,2.95 -4.34,0.49 -3.98,-0.36 -4.08,-1.14 -4.85,-2.42 c -19.5,-12.19 -67.05,-40.57 -99.22,-64.03 -15.35,-11.19 -27.32,-21.63 -32.56,-28.98 -4.06,-5.68 -3.59,-13.24 0.71,-18.36 0.6,-7.56 5.27,-17.37 22.04,-25.76 1.29,-0.64 2.79,-1.16 4.47,-1.57 z m 198.12,-831.56 c -3.01,0.66 -5.83,1.22 -8.43,1.7 -2.23,0.86 -4.64,1.55 -7.12,2.12 -3.23,0.74 -6.69,1.11 -9.52,2.25 l -7.74,1.49 -4.85,-0.48 -4.17,-1.16 c -5.74,-2.08 -11.77,-6.41 -15.7,-11.3 l -4.42,-7.62 -1.43,-7.23 1.19,-7.29 1.71,-3.54 2.33,-3.08 4.93,-3.82 c 2.86,-1.63 9.07,-4.2 17.56,-7.14 29.45,-10.21 89.88,-27.28 117.06,-33.37 8.98,-2.01 15.28,-2.68 17.45,-2.5 l 4.74,0.9 4.24,1.78 6.38,5 c 4.21,4.59 6.93,11.15 7.73,16.83 l 0.06,4.11 -0.76,3.53 -1.45,3.25 -2.4,3.34 c -2.48,2.82 -7.75,6.63 -15.49,10.28 -7.68,3.64 -18.45,7.71 -30.46,11.77 -0.14,0.13 -0.27,0.25 -0.39,0.38 -4.6,4.72 -5.7,10.79 -5.26,16.87 0.57,8.14 3.78,16.37 7.61,23.26 3.93,7.09 8.63,10.55 14,13.02 5.68,-1.08 11.13,-1.95 16.19,-2.55 14.7,-1.72 26.74,-0.8 33.92,2.25 l 5.49,3.1 5.06,5.09 3.32,6.96 0.78,7.37 -1.1,5.17 -2.94,5.04 c -2.58,3.17 -9.33,7.8 -19.73,11.87 -35.4,13.85 -124.31,33.25 -136.88,36.18 -8.06,1.88 -16.13,-3.15 -18.01,-11.21 -0.65,-2.82 -0.47,-5.63 0.4,-8.19 l -0.29,-0.4 c -0.54,-0.98 -1.55,-2.76 -2.25,-4.43 l -1.36,-4.58 -0.21,-4.3 0.95,-4.35 3.37,-5.37 6.29,-4.44 c 0.22,-0.12 0.46,-0.24 0.71,-0.36 l 1.55,-1.35 4.3,-2.22 4.56,-1.11 c 0.24,-0.03 0.49,-0.06 0.74,-0.09 5.14,-2.02 11.42,-4.34 18.44,-6.77 1.08,-0.75 1.94,-1.35 2.42,-1.68 3.6,-3.21 8.21,-6.47 12.17,-10.2 2.1,-1.97 4.72,-3.95 3.42,-7.35 -2.65,-6.94 -4.43,-13.14 -6.74,-18.68 -2.31,-5.54 -5.37,-10.14 -12.4,-13.95 -2.48,-1.34 -6,-2.18 -9.57,-2.8 z M 1344.91,927.253 c -5.84,-4.415 -10.35,-10.667 -13.99,-18.072 -3.13,-6.367 -5.64,-13.694 -8.81,-20.453 -2.66,-5.672 -5.37,-11.422 -12.16,-12.747 -9.35,-1.825 -15.23,-2.102 -19.1,0.246 -2.52,1.531 -3.44,4.257 -4.49,6.927 -1.46,3.703 -2.61,7.65 -3.97,11.451 -3.77,10.472 -9.21,19.765 -19.5,25.482 l -4.32,1.704 -4.22,0.684 c -5.46,0.447 -15.24,-0.701 -18.15,-1.192 -13.33,-2.256 -21.28,-7.339 -26.24,-13.359 -5.09,-6.192 -7.46,-13.877 -7.48,-23.107 -0.02,-8.811 2.41,-19.622 4.52,-31.791 2.29,-13.162 4.66,-28.209 4.46,-41.598 -0.08,-5.949 3.23,-44.988 5.98,-61.801 0.79,-4.814 1.73,-8.311 2.4,-9.947 l 3.46,-5.351 c 3.06,-3.14 5.9,-5.095 8.36,-6.299 l 3.88,-1.473 4.59,-0.692 4.11,0.317 3.9,1.177 5.93,3.899 c 2.73,2.56 5.4,6.666 7.45,12.191 2.53,6.847 4.5,17.073 7.6,26.496 1.25,3.804 2.65,7.475 4.66,10.352 0.94,1.336 2.06,2.482 3.94,2.209 6.67,-0.971 11.5,-7.097 15.6,-12.659 6.1,-8.265 10.12,-16.951 11.94,-19.942 l 4.39,-5.116 2.84,-1.759 3.3,-1.135 3.88,-0.4 4.13,0.562 3.74,1.498 2.93,2.027 4.3,5.489 2.28,6.785 c 1.28,6.135 1.92,14.582 4.41,21.816 0.89,2.587 1.52,5.503 4.44,5.997 5.93,1.003 10.22,0.973 13.35,-0.546 3.62,-1.755 4.83,-5.472 6.08,-8.83 1.71,-4.584 2.91,-9.237 4.36,-13.085 1.32,-3.502 2.87,-6.546 4.66,-8.996 l 2.78,-3.224 3.76,-2.991 3.87,-1.949 4.25,-1.173 8.34,0.037 6.69,2.204 5.95,4.622 2.54,3.56 1.62,3.653 0.98,4.123 0.24,5.412 c -1.19,22.968 -2.9,78.316 -7.78,117.834 -2.33,18.847 -5.64,34.386 -9.51,42.538 -3,6.31 -9.84,9.566 -16.4,8.294 -6.9,3.145 -17.74,3.832 -33.22,-6.757 -1.19,-0.813 -2.37,-1.869 -3.55,-3.142 z M 517.792,1158.94 c 2.033,2.31 3.899,4.5 5.579,6.54 1.841,1.54 3.612,3.31 5.317,5.2 2.207,2.46 4.213,5.31 6.587,7.23 l 5.056,6.04 1.945,4.48 1.003,4.2 c 0.97,6.03 0.12,13.4 -2.249,19.21 l -4.517,7.57 -5.622,4.76 -6.948,2.5 -3.925,0.22 -3.83,-0.53 -5.727,-2.46 c -2.819,-1.71 -8.077,-5.89 -14.771,-11.88 -23.229,-20.79 -67.503,-65.32 -86.021,-86.12 -6.121,-6.87 -9.767,-12.06 -10.664,-14.04 l -1.518,-4.59 -0.507,-4.56 1.279,-8.01 c 1.963,-5.91 6.38,-11.47 10.956,-14.93 l 3.557,-2.05 3.458,-1.04 3.549,-0.32 4.087,0.48 c 3.67,0.79 9.555,3.56 16.51,8.54 6.907,4.96 15.698,12.39 25.079,20.92 0.181,0.06 0.355,0.11 0.519,0.15 6.357,1.73 12.204,-0.26 17.306,-3.59 6.832,-4.46 12.474,-11.26 16.636,-17.95 4.282,-6.88 5.034,-12.67 4.578,-18.57 -3.707,-4.44 -7.11,-8.77 -10.085,-12.91 -8.644,-12.01 -13.691,-22.99 -14.512,-30.74 l 0.045,-6.31 1.992,-6.89 4.468,-6.29 6.063,-4.254 5.058,-1.552 5.834,0.122 c 4.024,0.716 11.346,4.374 19.954,11.484 29.296,24.21 89.445,92.52 98.103,102.08 5.558,6.13 5.088,15.62 -1.048,21.18 -2.143,1.94 -4.696,3.15 -7.348,3.64 l -0.218,0.44 c -0.589,0.95 -1.659,2.69 -2.78,4.12 l -3.334,3.42 -3.661,2.27 -4.263,1.28 -6.333,-0.34 -6.931,-3.34 c -0.213,-0.14 -0.435,-0.29 -0.668,-0.45 l -1.928,-0.69 -4.03,-2.68 -3.188,-3.45 c -0.146,-0.2 -0.293,-0.4 -0.439,-0.61 -4.263,-3.51 -9.333,-7.87 -14.873,-12.83 -1.178,-0.57 -2.121,-1.04 -2.636,-1.3 -4.561,-1.58 -9.644,-4.03 -14.827,-5.68 -2.751,-0.88 -5.75,-2.21 -8.09,0.58 -4.775,5.69 -9.332,10.25 -13.054,14.96 -3.72,4.71 -6.256,9.62 -6.174,17.61 0.029,2.83 1.007,6.31 2.201,9.73 z m -156.169,943.67 c -1.022,7.26 -4.296,14.24 -9.002,21.01 -4.048,5.83 -9.233,11.58 -13.602,17.63 -3.666,5.08 -7.372,10.25 -5.233,16.83 2.945,9.06 5.556,14.33 9.489,16.57 2.563,1.46 5.393,0.94 8.237,0.57 3.945,-0.53 7.952,-1.44 11.939,-2.1 10.983,-1.79 21.748,-1.55 31.743,4.67 l 3.588,2.95 2.648,3.36 c 3.044,4.56 6.79,13.66 7.771,16.44 4.504,12.75 3.924,22.17 1.066,29.42 -2.938,7.46 -8.505,13.27 -16.564,17.77 -7.693,4.29 -18.322,7.42 -29.986,11.49 -12.614,4.39 -26.921,9.62 -38.529,16.3 -5.158,2.96 -40.891,19.03 -56.925,24.79 -4.591,1.65 -8.107,2.52 -9.862,2.73 l -6.357,-0.42 c -4.23,-1.15 -7.319,-2.69 -9.563,-4.25 l -3.173,-2.67 -2.838,-3.69 -1.717,-3.74 -0.864,-3.98 0.525,-7.08 c 0.917,-3.62 3.207,-7.96 7.042,-12.43 4.755,-5.54 12.738,-12.22 19.471,-19.51 2.718,-2.94 5.247,-5.95 6.781,-9.11 0.712,-1.47 1.171,-3 0.02,-4.51 -4.086,-5.36 -11.788,-6.6 -18.644,-7.49 -10.187,-1.32 -19.732,-0.61 -23.23,-0.75 l -6.603,-1.35 -2.917,-1.63 -2.597,-2.34 -2.233,-3.19 -1.513,-3.88 -0.51,-4.01 0.351,-3.54 2.707,-6.43 4.823,-5.28 c 4.746,-4.1 11.816,-8.76 16.932,-14.45 1.83,-2.03 4.069,-4.01 3.083,-6.8 -2.002,-5.67 -4.109,-9.4 -6.958,-11.4 -3.293,-2.31 -7.133,-1.57 -10.673,-1.03 -4.835,0.74 -9.485,1.95 -13.554,2.55 -3.702,0.55 -7.118,0.67 -10.127,0.3 l -4.169,-0.87 -4.444,-1.84 -3.581,-2.43 -3.089,-3.15 -4.021,-7.31 -1.321,-6.92 1.149,-7.44 1.882,-3.95 2.404,-3.19 3.127,-2.86 4.619,-2.83 c 20.651,-10.12 69.862,-35.51 106.778,-50.44 17.606,-7.11 32.798,-11.77 41.805,-12.34 6.972,-0.45 13.141,3.96 15.215,10.31 6.099,4.5 11.966,13.64 10.227,32.32 -0.134,1.43 -0.481,2.98 -1.023,4.62 z m 736.197,597.19 c -0.21,-2.96 0.46,-6.02 2.1,-8.76 l 3.38,-4.11 3.73,-2.41 6.31,-1.36 0.06,0.02 2.09,-1.56 3.58,-1.42 3.12,-0.48 5.87,0.81 4.87,2.42 c 1.72,1.15 3.89,2.98 5.85,4.92 1.93,1.91 3.64,3.92 4.64,5.33 l 2.64,5.27 c 3.04,10.14 3.83,23.51 3.83,34.45 0,14.85 -3.63,44.56 1.04,67.33 1.29,6.25 2.78,12.2 6.17,15.9 0.93,0.79 1.91,1.52 2.94,2.17 0.39,0.25 0.79,0.5 1.2,0.72 0.71,0.29 1.48,0.51 2.3,0.66 0.74,0.14 1.46,0.27 2.17,0.38 0.15,-0.03 0.3,-0.06 0.45,-0.1 6.1,-1.67 10.3,-3.53 13.18,-6.12 4.38,-3.94 5.49,-9.22 7.42,-15.24 0.87,-2.76 1.79,-5.64 2.85,-8.66 0.83,-14.7 -0.66,-31.36 -1.28,-46.29 -0.71,-16.86 -0.21,-31.91 3.32,-41.74 3.03,-8.46 8.12,-14.21 14.77,-17.4 6.05,-2.9 14,-3.93 24.43,-0.68 l 5.45,2.7 5.33,5.51 c 2.11,3.11 3.85,7.52 4.82,12.86 2.13,11.65 0.39,30.2 1.17,35.9 3.53,25.9 3.55,55.91 -3.53,81.58 -5.18,18.82 -14.17,35.37 -27.7,47.21 -4.81,4.21 -11.27,6.91 -18.43,8.42 -6.47,1.35 -13.67,1.56 -18.95,2.95 -25,6.58 -41.6,2.76 -53.39,-5.61 -16.01,-11.39 -23.44,-33.89 -29.63,-58.68 -5.84,-23.35 -1.24,-59.04 0.91,-82.65 0.72,-7.97 -0.65,-16.27 -0.65,-24.17 0,-2.03 0.91,-6.85 1.57,-10.07 z m 121.78,71.53 0.36,0.29 c -0.11,-6.63 -0.53,-13.2 -1.2,-19.56 0.22,4.27 0.44,8.62 0.62,12.97 0.09,2.1 0.16,4.2 0.22,6.3 z m -82.49,-72.44 c 0.24,-1.07 0.37,-2.25 0.37,-3.56 0,1 -0.14,2.21 -0.37,3.56 z m 145.08,-14.57 c 2.04,-0.83 3.96,-1.51 5.34,-2.04 11.71,-4.5 20.71,-4.17 28.2,-1.67 7.18,2.39 13.19,7.07 18.78,13.26 9.04,9.98 16.41,26.89 41.62,26.89 3.58,0 6.35,-0.5 8.42,-1.85 3.33,-2.17 4.61,-6.01 5.89,-9.96 2.66,-8.17 4.06,-17.36 6.65,-25.32 3.24,-9.96 8.25,-18.28 16.09,-23.71 7.72,-5.34 18.6,-8.45 35.01,-5.47 l 5.66,2.14 4.94,4.41 c 2.86,3.69 4.89,11.81 5.52,14.76 7.27,33.94 14.04,71.81 17.51,105.38 0.5,4.84 3.09,9.48 4.85,14.36 2.05,5.68 3.5,11.5 3.5,17.55 0,3.54 0.63,7.96 -0.22,11.61 l -2.14,5.51 -4.29,5.28 -4.05,2.57 -5.39,1.37 -7.09,-0.37 -6.8,-2.03 c -8.09,-4.05 -12.88,-9.75 -16.68,-16.32 -3.96,-6.84 -5.21,-16.12 -20.39,-19.74 -3.78,-0.9 -4.68,2.96 -6.01,6.04 -2.52,5.86 -3.98,12.65 -5.32,18.17 -1.59,6.57 -3.34,11.91 -5.08,14.82 l -4.71,5.41 -2.96,1.84 -3.81,1.31 -5.09,0.36 -6.08,-1.44 c -3.39,-1.39 -7.6,-4.48 -11.9,-9.08 -3.91,-4.19 -8.44,-10.03 -13.52,-14.8 -2.36,-2.22 -4.43,-4.84 -7.22,-4.84 -1.04,0 -1.23,1.14 -1.69,1.99 -0.9,1.69 -1.6,3.61 -2.21,5.63 -3.13,10.3 -4.37,22.42 -7.05,29.78 -1.34,3.68 -3.03,6.67 -4.88,8.91 l -3.15,3.13 -4.37,2.68 -5.31,1.51 -5.33,0.01 -5.49,-1.45 c -1.95,-0.79 -4.11,-1.95 -6.45,-3.65 l -3.94,-3.72 c -1.19,-1.43 -2.39,-3.22 -3.53,-5.39 -2.67,-5.1 -5.28,-13.34 -7.5,-23.31 -6.18,-27.78 -10.37,-71.16 -13.46,-83.51 -2.77,-11.11 -4.37,-22.49 -7.02,-33.77 -0.26,-1.09 -1.47,-5.42 -2.34,-8.51 -1.82,-2.48 -2.9,-5.55 -2.9,-8.87 l 1.05,-6.25 2.62,-4.47 2.87,-2.63 2.81,-1.56 5.65,-1.19 z m 381.58,14.81 c 0.61,0.54 6.39,5.63 10.52,8.97 7.09,5.7 14.35,11.99 18,17.02 l 2.77,4.64 1.49,4.27 0.51,4.67 -0.93,5.46 -2.62,4.98 -3.42,3.44 -5.89,3.11 c -1.88,0.66 -4.23,1.18 -6.98,1.48 -7.41,0.8 -19.82,-0.25 -32.16,-0.7 -8.56,-0.31 -17.16,-0.95 -22.13,1.66 -10.95,5.77 -30.31,28.33 -45.26,40.28 -6.5,5.2 -12.58,8.75 -17.34,10.21 l -6.31,1.1 -5.16,-0.44 c -3.06,-0.65 -5.63,-1.38 -7.78,-2.4 l -4.81,-3.12 -4.5,-5.52 -2.36,-6.01 c -2.07,-8.31 -3.62,-37.25 -4.2,-68.72 -6.41,-25.3 -15.04,-52.99 -15.04,-74.15 0,-5.5 1.97,-14.73 5.39,-19.39 2.63,-3.59 6.78,-6.95 11.71,-9.66 4.58,-2.52 9.94,-4.54 13.68,-6.24 23.89,-10.86 41.2,-4.51 56.01,8.44 10.96,9.58 20.17,23.9 30.44,35.19 13.14,14.45 25.36,24.52 36.37,41.43 z m -89.45,-11.57 c -0.37,1.12 -1.17,3.7 -1.48,5.61 -1.35,8.42 -1.03,19.51 0.77,28.93 0.67,3.56 2.36,8 3.37,10.45 5.55,-0.9 11.48,-4.44 16.33,-6.3 7.87,-3.03 12.81,-5.77 14.3,-10.02 1.56,-4.47 -1.41,-9.06 -4.62,-13.93 -3.55,-5.36 -8.27,-10.62 -13.33,-15.53 -5.83,-1.32 -11.59,-1.49 -15.34,0.79 z m 82.7,-126.39 0.37,-0.52 2.98,-2.66 c 2.12,-1.54 8.85,-4.68 8.85,-4.68 0,0 -1.25,1.02 -1.69,1.53 l 4.81,-3.99 3.86,-1.71 3.56,-0.79 c 4.48,-0.6 11.26,0.46 19.2,3.37 8.15,2.98 18.52,7.91 28.71,11.07 3.98,1.23 7.9,2.2 11.57,2.39 1.88,0.1 3.66,0.13 5.14,-0.66 5.72,-3.08 3.5,-8.5 1.8,-13.78 -2.65,-8.22 -6.84,-16.73 -9.46,-24.37 -4.56,-13.28 -4.15,-24.99 2.06,-33.28 4.15,-5.55 11.37,-10.63 24.3,-12.48 l 5.27,-0.1 4.88,1.09 4.82,2.33 5.19,4.25 c 5.39,5.54 9.58,16.09 13.02,20.47 10.85,13.81 60.83,94.35 69,113.07 0.92,2.11 1.49,3.81 1.79,5 l 0.56,4.12 -0.49,4.19 -1.85,4.31 -4.91,5.94 -6.25,4.31 c -3.86,1.93 -8.24,3 -13.11,3.19 -6.46,0.24 -14.17,-1.26 -22.49,-3.58 -9.22,-2.57 -19.49,-6.24 -29.47,-7.34 -6.5,-0.72 -12.94,-0.42 -18.12,4.29 -4.1,3.73 -2.49,8.61 -1.14,13.32 1.89,6.65 4.87,13.31 6.85,19.38 3.39,10.39 3.8,19.83 0.43,27.18 l -3.07,5.06 -4.16,4.26 c -2.59,2.13 -5.87,4.06 -10.1,5.57 -7.52,2.68 -20.36,2.5 -27.52,-2.06 -3.7,-2.36 -11.47,-11.23 -19.89,-23.62 -16.42,-24.14 -38.41,-62.17 -42.52,-72.03 -5.56,-13.34 -16.41,-24.75 -21.57,-38.67 -4.27,-5.86 -3.77,-14.14 1.53,-19.43 l 4.26,-3.02 z m 10.08,27.95 c 0.04,-0.02 0.09,-0.04 0.14,-0.07 v 0 c -0.05,0.03 -0.1,0.05 -0.14,0.07 z m 350.67,-407.09 -1.75,-4.76 0.02,-7.99 c 0.47,-2.79 1.42,-5.63 2.71,-8.47 1.27,-2.8 3.54,-5.46 4.03,-8.24 2.55,-14.44 8.92,-23.5 17.06,-29.29 7.71,-5.49 17.48,-8.05 28.61,-8.22 12.61,-0.2 27.33,2.74 41.76,5.42 11.57,2.16 22.89,4.32 32.09,2.87 5.44,-0.86 39.67,-2.32 54.17,1.2 2.5,0.61 4.63,1.36 6.33,2.17 l 5.09,3.34 3.56,4.38 1.75,4.34 c 3.45,13.78 -3.43,25.03 -16.63,34.2 -5.45,3.79 -12.09,7.34 -17.79,11.41 -2.83,2.02 -5.79,3.77 -6.66,6.66 -4.37,14.57 -7.71,27.98 -9.38,43.09 -0.67,6.02 2.54,13.07 3.5,19.38 1.48,9.68 -0.02,18.28 -5.59,24.97 l -4.58,4.35 -5.2,3.09 -5.65,1.9 -6.02,0.66 -5.27,-0.94 -7.15,-4.31 c -14.77,-10.88 -70.94,-56.72 -94.23,-77 -7.72,-6.72 -12.33,-11.74 -13.06,-12.96 -2.11,-3.52 -2.61,-7.56 -1.72,-11.25 z m 70.66,-1.46 c 1.47,2.9 6.92,13.34 12.22,19.24 4.05,4.51 10.4,9.37 14.49,12.3 2.67,-6.47 7.41,-13.46 11.55,-20.51 1.23,-2.11 2.39,-4.22 3.19,-6.36 0.47,-1.26 1.04,-2.47 0.69,-3.72 -2.3,-8.04 -11.2,-10.07 -19.54,-9.93 -8.75,0.15 -18.22,2.81 -22.6,8.98 z m -30.35,-149.44 c -0.64,-5.37 -0.01,-11.18 1.67,-17.09 2.44,-8.58 7.36,-17.48 9.08,-23.71 2.93,-10.61 4.2,-25.26 8.41,-38.08 3.75,-11.4 9.65,-21.45 18.8,-28.32 20.73,-15.54 61.67,-22.96 95.65,-15.43 24.74,5.49 45.44,18.73 54.43,39.73 6.18,14.41 8.1,65.52 0.82,97.65 -2.13,9.44 -5.1,17.37 -8.56,22.86 -2.06,3.26 -4.35,5.85 -6.73,7.81 l -6.93,4.03 c -2.9,1.09 -10.18,1.84 -20.17,0.93 -26.99,-2.48 -83.01,-13.49 -93.71,-15.02 -11.68,-1.67 -24.05,-5.28 -35.54,-8.24 l -5.16,-2.21 -4.35,-3.44 c -4.18,-4.12 -7.5,-10.6 -7.89,-11.78 l -0.7,-3.44 0.19,-4.05 z m 92.06,-67.98 c -5.52,3.34 -10.75,7.83 -15.42,12.98 -1.46,1.61 -5.97,6.32 -7.56,7.98 -1.46,9.12 -2.47,18.21 -1.67,27.47 3.89,5.01 8.98,8.8 14.79,11.73 2.22,0.04 4.36,-0.11 6.38,-0.53 13.1,-2.73 23.91,-3.31 32.81,-4 5.94,-0.46 10.64,0.02 13.94,-2.8 3.59,-3.07 4.65,-9.03 6.11,-19.29 0.5,-3.5 1.16,-7.19 1.44,-10.89 0.13,-1.81 0.28,-3.64 0.03,-5.4 -2.26,-2.28 -4.83,-4.33 -7.61,-6.15 -10.18,-6.69 -23.12,-10.42 -35.66,-11.08 -2.53,-0.13 -5.07,-0.14 -7.58,-0.02 z m -54.02,-197.05 c 0.37,-0.4 0.72,-0.74 1.06,-1.05 l 4.98,-3.32 5.17,-1.44 5.01,0.19 4.49,1.54 5.3,4.13 3.45,5.28 c 2.66,5.49 4.8,18.02 9.88,28.69 2.33,4.89 5.34,9.93 11.99,9.02 3.1,-0.42 4.58,-3.49 6.29,-6.18 4,-6.28 6.89,-13.62 9.79,-18.75 3,-5.32 6.43,-9.09 9.69,-11.2 l 3.23,-1.69 3.93,-1.17 4.31,-0.29 4.2,0.67 3.92,1.46 3.57,2.15 5.3,5.46 c 2.68,3.83 4.53,9.12 5.67,15.28 0.72,3.85 1.21,8.21 2.21,12.4 0.63,2.61 0.98,5.5 3.5,6.89 2.56,1.41 6.23,1.45 11.38,0.84 0.56,-0.06 0.45,-0.72 0.62,-1.19 0.31,-0.84 0.55,-1.74 0.75,-2.69 1.01,-4.74 1.17,-10.19 1.41,-15.45 0.33,-7.2 0.78,-14.13 2.16,-19.59 0.84,-3.34 2.01,-6.29 3.47,-8.79 l 4.76,-5.93 c 1.92,-1.74 3.74,-3.04 5.42,-4 l 4.65,-2.05 4.74,-0.89 5.25,0.37 5.82,2.28 3.39,2.53 2.5,2.75 c 2.27,2.97 4.34,7.39 5.62,13.1 5.02,22.4 -1.42,74.01 -3.78,81.44 l -2.22,4.54 -4.08,4.23 -5.52,3.02 c -1.9,0.74 -4.29,1.42 -7.08,1.94 -17.22,3.24 -57.61,0.76 -65.13,0.76 -14.98,0 -30.69,-1.42 -46.34,-1.42 -9.23,0 -18.47,1.84 -26.24,1.98 -10.24,0.18 -18.72,-2.28 -24.94,-8.02 -5.72,-5.28 -10.44,-14.02 -10.5,-29.44 -0.17,-0.66 -1.73,-6.96 -1.97,-10.16 l 0.39,-6.84 1.86,-5.4 c -0.06,0.12 -0.16,0.37 -0.16,0.37 0,0 0.27,-2.26 0.26,-3.59 0,-3.66 -0.37,-7.67 -0.54,-11.65 -0.34,-7.91 0.25,-15.66 2.85,-21.89 2.45,-5.89 8.24,-9.39 14.26,-9.23 z m 147.08,73.7 c -0.22,-0.13 -0.44,-0.28 -0.65,-0.43 -0.02,0.01 -0.04,0.02 -0.05,0.04 0.23,0.14 0.47,0.27 0.7,0.39 z m -208.12,-383.09 c -2.49,1.62 -5.48,2.53 -8.68,2.42 l -5.23,-0.96 -3.92,-2.08 -4.25,-4.86 -0.02,-0.06 -2.38,-1.08 -2.98,-2.43 -1.93,-2.5 -2.15,-5.52 -0.24,-5.44 c 0.17,-2.06 0.71,-4.84 1.45,-7.5 0.74,-2.61 1.66,-5.09 2.41,-6.64 l 3.32,-4.87 c 7.39,-7.58 18.69,-14.76 28.26,-20.08 12.98,-7.21 40.71,-18.47 58.35,-33.61 4.84,-4.16 9.32,-8.35 10.9,-13.11 0.24,-1.2 0.4,-2.41 0.47,-3.62 0.03,-0.47 0.05,-0.94 0.05,-1.41 -0.1,-0.76 -0.27,-1.54 -0.54,-2.33 -0.24,-0.72 -0.48,-1.41 -0.73,-2.08 -0.09,-0.12 -0.19,-0.23 -0.31,-0.35 -4.41,-4.52 -8.07,-7.28 -11.75,-8.54 -5.56,-1.92 -10.72,-0.33 -16.91,0.92 -2.84,0.57 -5.81,1.16 -8.96,1.71 -13.26,6.41 -27.09,15.8 -39.84,23.6 -14.4,8.8 -27.8,15.68 -38.1,17.37 -8.87,1.45 -16.37,-0.19 -22.39,-4.46 -5.46,-3.88 -10.24,-10.33 -12.45,-21.02 l -0.29,-6.08 2.22,-7.34 c 1.7,-3.35 4.71,-7.02 8.9,-10.46 9.15,-7.51 26.22,-15.01 30.82,-18.45 20.93,-15.67 47.15,-30.26 73.03,-36.55 18.97,-4.61 37.8,-4.79 54.72,1.29 6.02,2.16 11.51,6.5 16.31,12.03 4.33,4.99 8,11.18 11.79,15.12 17.89,18.66 22.61,35.03 21.01,49.4 -2.17,19.53 -18.23,36.95 -36.89,54.4 -17.58,16.45 -51.02,29.76 -72.69,39.34 -7.33,3.25 -13.91,8.48 -20.82,12.32 -1.77,0.98 -6.43,2.52 -9.56,3.51 z m 3.38,-141.19 0.08,-0.46 c -5.74,3.32 -11.28,6.88 -16.52,10.56 3.63,-2.27 7.32,-4.58 11.03,-6.85 1.8,-1.1 3.6,-2.18 5.41,-3.25 z m -23.26,107.29 c -1.05,0.31 -2.15,0.77 -3.29,1.41 0.88,-0.49 1.99,-0.96 3.29,-1.41 z m -54.54,-119.1 c -1.29,2.81 -3.45,5.25 -6.35,6.86 l -5.98,2.11 -5.17,-0.11 -3.69,-1.23 -2.73,-1.7 -3.79,-4.37 -0.95,-2.2 c -1.71,-1.39 -3.24,-2.73 -4.38,-3.68 -9.62,-8.05 -13.7,-16.08 -15.15,-23.83 -1.4,-7.44 -0.22,-14.98 2.46,-22.87 4.34,-12.75 15.54,-27.4 3.3,-49.43 -1.74,-3.13 -3.52,-5.32 -5.7,-6.47 -3.52,-1.85 -7.5,-1.11 -11.58,-0.31 -8.42,1.64 -17.14,4.88 -25.36,6.48 -10.28,2 -19.99,1.67 -28.54,-2.55 -8.41,-4.15 -16.42,-12.15 -21.78,-27.95 l -0.88,-5.98 1.46,-6.46 c 1.83,-4.29 7.95,-10.01 10.22,-12 26.13,-22.83 55.95,-47.14 83.6,-66.48 3.99,-2.79 6.79,-7.3 10.21,-11.22 3.96,-4.54 8.35,-8.65 13.64,-11.58 3.09,-1.72 6.64,-4.42 10.26,-5.44 l 5.85,-0.81 6.7,1.19 4.21,2.29 3.81,4.05 3.13,6.37 1.52,6.93 c 0.4,9.04 -2.26,16 -6.16,22.51 -4.05,6.78 -11.56,12.38 -7.35,27.41 1.05,3.73 4.86,2.66 8.19,2.32 6.35,-0.64 12.99,-2.66 18.47,-4.17 6.52,-1.81 12.04,-2.87 15.42,-2.77 l 7.02,1.5 3.04,1.7 3.01,2.69 2.78,4.27 1.69,6.01 c 0.44,3.64 -0.22,8.83 -2.16,14.82 -1.76,5.45 -4.66,12.25 -6.37,19 -0.79,3.14 -2.08,6.23 -0.72,8.66 0.51,0.92 1.59,0.52 2.56,0.51 1.92,-0.03 3.93,-0.36 6,-0.8 10.52,-2.26 21.71,-7.06 29.45,-8.3 3.87,-0.62 7.31,-0.59 10.16,-0.06 l 4.26,1.23 4.47,2.53 3.9,3.9 2.6,4.65 1.4,5.51 c 0.26,2.08 0.29,4.54 -0.06,7.41 l -1.34,5.25 c -0.67,1.74 -1.65,3.66 -3,5.7 -3.16,4.81 -9.09,11.09 -16.73,17.88 -21.28,18.9 -57.17,43.63 -66.46,52.32 -8.36,7.83 -17.54,14.74 -26.11,22.54 -0.84,0.76 -4.03,3.92 -6.3,6.17 z M 1759.62,962.317 c 0.17,-0.792 1.82,-8.318 2.73,-13.549 1.55,-8.966 3.52,-18.373 6.14,-23.997 l 2.71,-4.677 3.01,-3.376 3.83,-2.712 5.23,-1.845 5.62,-0.126 4.67,1.322 5.58,3.63 c 1.49,1.333 3.09,3.127 4.68,5.385 4.3,6.091 9.41,17.451 15.02,28.457 3.88,7.633 7.49,15.462 12.19,18.533 10.36,6.777 39.49,12.743 57.19,20 7.71,3.161 13.76,6.753 17.35,10.205 l 4.03,4.983 2.12,4.72 c 0.91,2.99 1.53,5.59 1.68,7.96 l -0.4,5.73 -2.64,6.61 -4.11,4.98 c -6.25,5.85 -30.79,21.26 -58.03,37.05 -18.99,17.89 -39.01,38.88 -57.51,49.16 -4.8,2.67 -13.83,5.43 -19.57,4.71 -4.41,-0.56 -9.36,-2.55 -14.12,-5.55 -4.43,-2.78 -8.8,-6.48 -12.1,-8.93 -21.09,-15.6 -23.96,-33.82 -19.83,-53.05 3.05,-14.24 11.1,-29.25 15.98,-43.71 6.25,-18.498 9.12,-34.068 18.55,-51.913 z m 33.33,83.813 c 1.15,-0.22 3.81,-0.77 5.62,-1.43 8.02,-2.9 17.55,-8.57 24.92,-14.72 2.78,-2.32 5.84,-5.95 7.5,-8.03 -3.48,-4.41 -9.46,-7.87 -13.44,-11.2 -6.47,-5.41 -11.27,-8.4 -15.7,-7.64 -4.67,0.8 -7.24,5.63 -9.93,10.8 -2.97,5.71 -5.28,12.39 -7.11,19.2 1.68,5.74 4.32,10.85 8.14,13.02 z M 1667,1031.56 c -3.05,6.58 -10.53,10.16 -17.72,8.1 l -4.71,-2.26 -2.26,-2.17 -0.65,-0.08 -3.76,-1.31 c -2.38,-1.1 -8.4,-5.46 -8.4,-5.46 0,0 1.5,0.59 2.17,0.73 l -5.83,-2.26 -3.37,-2.55 -2.42,-2.73 c -2.7,-3.62 -5.07,-10.06 -6.38,-18.41 -1.35,-8.579 -2.07,-20.036 -4.27,-30.477 -0.85,-4.076 -1.91,-7.977 -3.52,-11.278 -0.82,-1.691 -1.67,-3.265 -3.08,-4.171 -5.46,-3.501 -9.12,1.068 -12.91,5.117 -5.91,6.308 -11.31,14.104 -16.72,20.112 -9.39,10.427 -19.83,15.76 -30.09,14.363 -6.86,-0.935 -14.81,-4.779 -22.71,-15.188 l -2.64,-4.552 -1.42,-4.799 -0.31,-5.339 1.2,-6.602 c 2.23,-7.406 9.41,-16.198 11.57,-21.331 6.8,-16.187 52.93,-98.991 65.32,-115.227 1.4,-1.832 2.61,-3.154 3.5,-3.993 l 3.33,-2.492 3.91,-1.604 4.66,-0.476 7.58,1.406 6.8,3.373 c 3.56,2.43 6.63,5.737 9.15,9.905 3.35,5.531 5.79,12.999 7.8,21.404 2.23,9.304 4.01,20.063 7.9,29.327 2.52,6.023 5.91,11.508 12.55,13.751 5.24,1.773 8.74,-2.006 12.2,-5.472 4.89,-4.889 9.26,-10.717 13.61,-15.399 7.44,-8.011 15.49,-12.954 23.55,-13.58 l 5.91,0.226 5.75,1.568 c 3.11,1.228 6.4,3.161 9.77,6.125 6,5.265 12.07,16.58 11.56,25.056 -0.26,4.383 -4.24,15.477 -10.98,28.86 -13.13,26.079 -35.69,63.767 -42.31,72.149 -8.97,11.338 -13.67,26.368 -23.33,37.638 z m -5.29,-18.81 v 0 c 0.05,0.03 0.09,0.06 0.13,0.09 -0.04,-0.03 -0.08,-0.06 -0.13,-0.09 z m -526.04,-108.731 -3.31,3.848 -6.99,3.857 c -2.66,0.95 -5.61,1.502 -8.72,1.75 -3.06,0.245 -6.49,-0.444 -9.16,0.475 -13.87,4.789 -24.87,3.613 -33.89,-0.687 -8.54,-4.077 -15.53,-11.37 -21.09,-21.017 -6.29,-10.921 -10.87,-25.224 -15.53,-39.134 -3.74,-11.166 -7.35,-22.108 -13.09,-29.441 -3.39,-4.343 -21.29,-33.55 -25.252,-47.939 -0.684,-2.484 -1.056,-4.711 -1.177,-6.584 l 0.446,-6.073 2.103,-5.246 2.94,-3.636 c 10.37,-9.705 23.55,-9.156 37.98,-2.07 5.96,2.926 12.28,6.997 18.6,10.005 3.15,1.499 6.11,3.234 9.06,2.588 14.86,-3.255 28.2,-6.851 42.23,-12.721 5.59,-2.34 10.19,-8.571 15.23,-12.476 7.75,-5.994 16,-8.864 24.55,-7.241 l 6.02,1.894 5.23,3.046 4.4,4.013 3.51,4.938 1.74,5.058 -0.29,8.35 c -2.34,18.194 -15.14,89.557 -21.55,119.768 -2.12,10.016 -4.28,16.475 -4.99,17.715 -2.05,3.551 -5.33,5.948 -9,6.96 z m -35.59,-61.057 c 1.82,-2.69 8.3,-12.527 10.89,-20.025 1.97,-5.727 3.13,-13.638 3.71,-18.637 -6.96,0.81 -15.37,0.057 -23.54,-0.134 -2.45,-0.057 -4.85,-0.04 -7.11,0.298 -1.33,0.199 -2.67,0.287 -3.58,1.203 -5.92,5.915 -3.37,14.687 0.8,21.9 4.39,7.579 11.31,14.567 18.83,15.395 z M 984.189,942.07 c -4.386,3.169 -9.771,5.439 -15.751,6.843 -8.682,2.038 -18.857,2.055 -25.136,3.578 -10.7,2.596 -24.126,8.599 -37.369,11.141 -11.785,2.262 -23.438,1.993 -33.887,-2.676 -23.655,-10.568 -50.024,-42.755 -59.943,-76.118 -7.222,-24.294 -5.699,-48.81 8.285,-66.875 9.6,-12.401 53.35,-38.896 84.968,-48.144 9.291,-2.718 17.667,-3.973 24.147,-3.616 3.841,0.212 7.22,0.958 10.09,2.091 l 6.888,4.096 c 2.357,2.005 6.552,8.004 10.602,17.18 10.946,24.796 28.533,79.115 32.394,89.212 4.213,11.017 7.059,23.592 10.056,35.066 l 0.577,5.585 -0.899,5.471 c -1.572,5.661 -5.627,11.712 -6.47,12.622 l -2.659,2.285 -3.638,1.8 z M 870.437,841.787 c -0.898,3.084 -1.439,6.329 -1.685,9.641 -0.901,12.144 2.121,25.269 7.64,36.551 1.113,2.277 2.335,4.504 3.655,6.636 5.611,3.208 12.072,5.602 18.846,7.176 2.113,0.491 8.418,2.15 10.645,2.738 8.681,-3.155 17.114,-6.683 24.82,-11.886 2.487,-5.83 3.334,-12.121 3.066,-18.625 -1.035,-1.959 -2.213,-3.758 -3.559,-5.316 -8.75,-10.128 -14.505,-19.294 -19.429,-26.738 -3.287,-4.968 -5.15,-9.315 -9.224,-10.829 -4.422,-1.644 -10.146,0.325 -19.825,4.026 -3.304,1.264 -6.85,2.483 -10.215,4.034 -1.648,0.76 -3.322,1.526 -4.735,2.592 z M 802.06,1019.14 c -0.501,0.47 -5.244,4.9 -7.927,6.66 l -6.17,2.98 -5.622,1 c 0.132,-0.01 0.401,-0.04 0.401,-0.04 0,0 -2.109,0.86 -3.274,1.51 -3.189,1.78 -6.518,4.06 -9.909,6.13 -6.753,4.15 -13.812,7.39 -20.524,8.15 -6.342,0.72 -12.213,-2.64 -14.994,-7.99 -0.526,-0.13 -1.003,-0.27 -1.431,-0.41 l -5.322,-2.74 -3.766,-3.82 -2.27,-4.47 -0.839,-4.67 1.038,-6.64 2.943,-5.59 c 3.503,-4.99 13.422,-12.946 20.279,-22.572 3.144,-4.414 6.086,-9.482 2.057,-14.863 -1.872,-2.5 -5.265,-2.302 -8.456,-2.494 -7.435,-0.448 -15.251,0.597 -21.143,0.557 -6.105,-0.041 -11.074,-1.213 -14.494,-3.042 l -3.054,-1.998 -2.921,-2.865 -2.352,-3.633 -1.456,-3.989 -0.626,-4.14 0.145,-4.161 2.202,-7.287 c 2.045,-4.203 5.77,-8.389 10.599,-12.381 3.022,-2.498 6.59,-5.039 9.763,-7.953 1.978,-1.815 4.334,-3.523 4.326,-6.408 -0.008,-2.926 -1.756,-6.146 -4.787,-10.353 -0.327,-0.455 -0.856,-0.045 -1.347,0.033 -0.884,0.141 -1.788,0.374 -2.709,0.656 -4.632,1.419 -9.48,3.926 -14.197,6.273 -6.45,3.209 -12.728,6.177 -18.173,7.628 -3.328,0.887 -6.475,1.291 -9.366,1.23 l -7.499,-1.283 c -2.451,-0.828 -4.471,-1.789 -6.128,-2.789 l -4.047,-3.071 -3.084,-3.715 -2.224,-4.767 -0.836,-6.196 0.57,-4.188 1.188,-3.518 c 1.488,-3.432 4.345,-7.391 8.716,-11.282 17.146,-15.265 65.391,-34.7 73.031,-36.25 l 5.044,-0.258 5.681,1.51 5.32,3.355 c 1.574,1.303 3.322,3.061 5.137,5.247 11.195,13.485 28.64,49.993 32.294,56.569 7.272,13.089 13.665,27.516 21.263,41.19 4.485,8.073 10.581,15.256 14.475,21.976 5.136,8.862 7.105,17.475 5.106,25.703 -1.839,7.559 -7.186,15.929 -20.631,23.469 z M 727.034,873.177 c -0.013,0.261 -0.033,0.522 -0.059,0.783 0.017,0.008 0.035,0.016 0.053,0.024 0.011,-0.272 0.013,-0.541 0.006,-0.807 z M 489.236,1242.16 c 2.629,1.39 4.873,3.57 6.331,6.42 l 1.709,5.04 0.076,4.44 -2.18,6.07 -0.045,0.04 0.219,2.61 -0.684,3.78 -1.245,2.9 -3.781,4.56 -4.636,2.86 c -1.885,0.85 -4.582,1.73 -7.262,2.37 -2.642,0.63 -5.257,1.02 -6.973,1.12 l -5.877,-0.54 c -10.213,-2.77 -21.98,-9.17 -31.271,-14.95 -12.61,-7.84 -35.92,-26.62 -57.724,-34.68 -5.983,-2.21 -11.827,-4.09 -16.757,-3.16 -1.161,0.38 -2.301,0.82 -3.392,1.35 -0.422,0.2 -0.845,0.41 -1.256,0.64 -0.616,0.45 -1.207,0.98 -1.771,1.6 -0.511,0.56 -1,1.11 -1.465,1.65 -0.057,0.14 -0.108,0.29 -0.153,0.44 -1.809,6.05 -2.447,10.6 -1.766,14.42 1.032,5.79 4.929,9.53 9.021,14.34 1.876,2.2 3.843,4.51 5.848,7 12.038,8.47 26.972,16.01 39.981,23.37 14.689,8.3 27.203,16.67 33.684,24.86 5.582,7.05 7.785,14.4 6.976,21.73 -0.736,6.67 -4.056,13.97 -12.328,21.1 l -5.172,3.2 -7.498,1.63 c -3.75,0.14 -8.416,-0.71 -13.459,-2.7 -11.017,-4.35 -25.855,-15.63 -31.101,-17.98 -23.861,-10.68 -49.346,-26.52 -67.412,-46.08 -13.241,-14.35 -22.547,-30.72 -25.452,-48.46 -1.033,-6.32 0.089,-13.23 2.594,-20.1 2.263,-6.21 5.885,-12.43 7.496,-17.65 7.62,-24.71 19.633,-36.78 32.972,-42.36 18.125,-7.59 41.151,-2.01 65.473,5.82 22.911,7.38 50.788,30.15 69.696,44.44 6.391,4.83 14.161,8.04 20.869,12.21 1.723,1.07 5.333,4.39 7.715,6.65 z m -125.059,65.62 -0.437,0.15 c 5.685,3.42 11.492,6.53 17.246,9.32 -3.744,-2.07 -7.554,-4.17 -11.342,-6.32 -1.831,-1.04 -3.656,-2.09 -5.467,-3.15 z m 105.082,-31.77 c 0.786,0.77 1.72,1.5 2.828,2.19 -0.849,-0.53 -1.802,-1.28 -2.828,-2.19 z m -77.613,105.52 c 3.076,-0.24 6.254,0.46 9.072,2.22 l 4.75,4.2 2.412,4.57 0.719,3.83 -0.161,3.21 -1.977,5.43 -1.461,1.9 c -0.379,2.17 -0.813,4.17 -1.091,5.62 -2.362,12.32 -7.398,19.78 -13.473,24.82 -5.826,4.83 -12.98,7.46 -21.185,8.95 -13.249,2.4 -31.498,-0.27 -44.812,21.13 -1.892,3.04 -2.937,5.65 -2.884,8.12 0.086,3.97 2.669,7.1 5.347,10.27 5.532,6.57 12.597,12.61 17.987,19.02 6.743,8.01 11.166,16.66 11.63,26.19 0.457,9.37 -2.649,20.25 -13.85,32.61 l -4.805,3.68 -6.352,1.86 c -4.646,0.48 -12.614,-2.09 -15.45,-3.11 -32.656,-11.75 -68.385,-26.01 -98.723,-40.79 -4.379,-2.14 -9.682,-2.39 -14.76,-3.47 -5.898,-1.26 -11.616,-3.1 -16.755,-6.3 -3.005,-1.87 -7.085,-3.67 -9.736,-6.32 l -3.551,-4.73 -2.214,-6.43 -0.043,-4.8 1.691,-5.3 4.056,-5.82 5.31,-4.7 c 7.711,-4.73 15.084,-5.79 22.673,-5.55 7.891,0.26 16.439,4.1 27.524,-6.88 2.76,-2.73 -0.031,-5.54 -1.948,-8.29 -3.643,-5.24 -8.634,-10.07 -12.615,-14.12 -4.741,-4.82 -8.356,-9.13 -9.908,-12.14 l -2.096,-6.86 v -3.48 l 0.895,-3.94 2.383,-4.5 4.432,-4.4 c 2.972,-2.15 7.826,-4.09 14.004,-5.31 5.618,-1.11 12.971,-1.87 19.704,-3.66 3.127,-0.84 6.453,-1.21 7.923,-3.57 0.554,-0.89 -0.317,-1.65 -0.801,-2.49 -0.953,-1.66 -2.221,-3.27 -3.611,-4.85 -7.088,-8.1 -16.722,-15.56 -21.56,-21.72 -2.421,-3.08 -4.061,-6.1 -4.988,-8.85 l -0.993,-4.33 0.034,-5.13 1.515,-5.3 2.806,-4.53 4.139,-3.9 c 1.695,-1.24 3.824,-2.47 6.504,-3.55 l 5.246,-1.38 c 1.839,-0.25 3.994,-0.33 6.432,-0.15 5.747,0.43 14.118,2.57 23.759,5.95 26.853,9.42 65.9,28.78 78.015,32.68 10.9,3.51 21.402,8.17 32.383,11.88 1.068,0.36 5.381,1.62 8.458,2.51 z m -148.293,211.01 c 24.861,7.92 52.931,15.22 70.905,26.4 4.667,2.91 11.466,9.45 13.619,14.82 1.657,4.13 2.319,9.42 2.012,15.04 -0.285,5.22 -1.396,10.84 -1.928,14.91 -3.398,26.02 -17.933,37.38 -36.748,43.11 -13.927,4.24 -30.955,4.5 -45.966,7.25 -19.208,3.52 -34.21,8.58 -54.388,9 -0.778,0.24 -8.158,2.45 -13.17,4.2 -8.59,3 -17.769,5.85 -23.961,6.28 l -5.406,-0.1 -4.413,-0.99 -4.23,-2.03 -4.151,-3.67 -2.84,-4.85 -1.112,-4.73 0.463,-6.64 c 0.443,-1.94 1.234,-4.21 2.433,-6.7 3.234,-6.73 10.684,-16.71 17.583,-26.95 4.785,-7.1 9.875,-14.06 10.279,-19.66 0.891,-12.35 -8.04,-40.71 -10.294,-59.71 -0.981,-8.27 -0.782,-15.31 0.494,-20.12 l 2.397,-5.94 3.096,-4.15 c 2.174,-2.25 4.146,-4.05 6.147,-5.33 l 5.199,-2.44 7.061,-0.9 6.349,1.17 c 8.147,2.62 33.542,16.59 60.57,32.73 z m 4.579,60.69 c -0.753,-0.9 -2.525,-2.95 -3.981,-4.22 -6.429,-5.6 -16.015,-11.18 -24.97,-14.63 -3.376,-1.31 -8.038,-2.21 -10.658,-2.66 -2.165,5.19 -2.289,12.09 -3.267,17.19 -1.587,8.29 -1.871,13.93 0.95,17.44 2.969,3.69 8.438,3.59 14.266,3.43 6.43,-0.18 13.388,-1.41 20.232,-3.11 4.2,-4.25 7.385,-9.05 7.428,-13.44 z m 48.431,117.17 c 7.239,-0.53 13.998,4.27 15.697,11.56 l 0.31,5.22 -0.8,3.03 0.241,0.6 0.684,3.93 c 0.194,2.62 -0.698,9.99 -0.698,9.99 0,0 -0.205,-1.6 -0.41,-2.25 l 0.852,6.2 -0.594,4.17 -1.205,3.44 c -1.853,4.13 -6.336,9.32 -13,14.53 -6.841,5.34 -16.502,11.54 -24.566,18.53 -3.147,2.72 -6.042,5.54 -8.145,8.55 -1.079,1.55 -2.046,3.05 -2.151,4.72 -0.406,6.48 5.365,7.46 10.745,8.81 8.382,2.09 17.818,3.03 25.698,4.84 13.676,3.14 23.407,9.68 27.17,19.33 2.517,6.45 3.017,15.26 -2.247,27.22 l -2.694,4.53 -3.505,3.57 -4.52,2.86 -6.351,2.16 c -7.556,1.65 -18.731,-0.36 -24.265,0.25 -17.452,1.91 -112.242,1.8 -132.451,-1.14 -2.28,-0.33 -4.023,-0.75 -5.19,-1.12 l -3.795,-1.7 -3.3,-2.64 -2.68,-3.84 -2.451,-7.31 -0.358,-7.59 c 0.396,-4.29 1.798,-8.57 4.215,-12.81 3.207,-5.61 8.552,-11.37 14.921,-17.21 7.051,-6.47 15.593,-13.24 21.803,-21.14 4.037,-5.14 7.187,-10.76 5.924,-17.65 -0.999,-5.45 -5.999,-6.67 -10.711,-8.01 -6.648,-1.9 -13.866,-2.89 -20.069,-4.42 -10.615,-2.61 -18.846,-7.25 -23.309,-13.99 l -2.674,-5.28 -1.421,-5.78 c -0.439,-3.32 -0.345,-7.13 0.607,-11.52 1.691,-7.8 8.632,-18.6 16.287,-22.28 3.958,-1.9 15.59,-3.81 30.561,-4.42 29.174,-1.18 73.077,0.23 83.621,1.96 14.263,2.32 29.687,-0.87 44.224,2.1 z m -13.868,13.76 h 0.002 c 0.004,-0.05 0.008,-0.1 0.013,-0.16 -0.005,0.06 -0.01,0.11 -0.015,0.16 z m 160.442,512.64 4.97,1.03 6.77,4.24 c 2.122,1.86 4.037,4.17 5.761,6.76 1.703,2.56 2.767,5.9 4.865,7.78 10.922,9.8 15.24,19.99 15.859,29.96 0.586,9.45 -2.397,19.1 -8.129,28.64 -6.489,10.81 -16.767,21.76 -26.664,32.59 -7.944,8.69 -15.756,17.16 -19.38,25.73 -2.147,5.08 -18.987,34.91 -29.639,45.36 -1.839,1.81 -3.605,3.22 -5.184,4.23 l -5.526,2.56 -5.605,0.71 -4.606,-0.8 c -13.521,-4.35 -19.441,-16.14 -20.255,-32.2 -0.336,-6.63 0.149,-14.13 -0.292,-21.12 -0.219,-3.48 -0.14,-6.91 -2.137,-9.17 -10.06,-11.41 -19.685,-21.33 -31.627,-30.73 -4.761,-3.76 -12.441,-4.75 -18.306,-7.26 -9.002,-3.87 -15.517,-9.68 -18.25,-17.94 l -1.272,-6.19 0.124,-6.05 1.369,-5.8 2.613,-5.46 3.579,-3.98 7.44,-3.8 c 17.041,-6.79 85.636,-30.26 115.157,-39.33 9.789,-3.01 16.479,-4.27 17.91,-4.24 4.099,0.06 7.79,1.77 10.455,4.48 z m -36.088,60.76 c -3.236,-0.28 -14.98,-1.16 -22.79,0.22 -5.967,1.05 -13.443,3.88 -18.093,5.81 4.084,5.68 7.513,13.4 11.314,20.64 1.137,2.16 2.323,4.26 3.716,6.07 0.817,1.06 1.544,2.19 2.789,2.54 8.043,2.3 14.474,-4.19 18.752,-11.34 4.495,-7.51 7.243,-16.95 4.312,-23.94 z m 142.921,53.18 c 4.901,2.29 9.5,5.9 13.632,10.44 5.998,6.6 10.955,15.49 15.336,20.24 7.466,8.09 19.234,16.91 27.888,27.25 7.701,9.21 13.125,19.52 14.12,30.92 2.25,25.81 -13.079,64.5 -37.425,89.37 -17.728,18.11 -39.899,28.69 -62.482,25.24 -15.502,-2.37 -59.911,-27.75 -83.352,-50.89 -6.888,-6.8 -12.053,-13.52 -14.888,-19.35 -1.68,-3.47 -2.67,-6.78 -3.073,-9.84 l 0.235,-8.01 c 0.608,-3.03 3.815,-9.62 9.868,-17.61 16.36,-21.61 55.3,-63.37 62.251,-71.65 7.584,-9.03 17.194,-17.63 25.768,-25.82 l 4.602,-3.22 5.219,-1.87 c 5.713,-1.37 12.97,-0.77 14.176,-0.47 l 3.289,1.21 3.341,2.31 z m -36.773,73.93 c -1.21,1.85 -2.211,3.76 -2.919,5.69 -4.603,12.57 -9.821,22.05 -13.936,29.97 -2.746,5.29 -5.641,9.03 -4.986,13.32 0.711,4.67 5.212,8.71 13.148,15.38 2.709,2.27 5.497,4.78 8.487,6.97 1.465,1.07 2.948,2.16 4.566,2.88 3.131,-0.72 6.231,-1.82 9.246,-3.21 11.053,-5.11 21.058,-14.13 28.24,-24.43 1.449,-2.08 2.802,-4.23 4.025,-6.42 0.079,-6.46 -0.966,-13.27 -2.88,-19.96 -0.597,-2.08 -2.21,-8.4 -2.777,-10.64 -6.974,-6.05 -14.153,-11.71 -22.445,-15.92 -6.304,0.66 -12.214,2.98 -17.769,6.37 z m 192.603,47.84 c 0.654,0.21 6.824,2.21 9.669,3.7 l 5.598,3.94 3.605,4.43 c -0.069,-0.11 -0.231,-0.33 -0.231,-0.33 0,0 1.784,1.42 2.916,2.13 3.101,1.92 6.709,3.73 10.173,5.68 6.899,3.89 13.166,8.49 17.088,13.99 3.705,5.19 3.621,11.96 0.3,16.98 0.141,0.53 0.25,1.01 0.333,1.45 l 0.188,5.99 -1.51,5.15 -2.803,4.15 -3.677,3 -6.308,2.32 -6.31,0.14 c -6.07,-0.64 -17.837,-5.45 -29.583,-6.76 -5.385,-0.61 -11.244,-0.72 -13.991,5.42 -1.276,2.85 0.545,5.72 1.927,8.6 3.219,6.72 7.929,13.04 10.756,18.21 2.928,5.36 4.318,10.27 4.381,14.15 l -0.265,3.64 -1.085,3.94 -2.033,3.82 -2.78,3.21 -3.315,2.56 -3.708,1.89 -7.439,1.62 c -4.667,0.25 -10.136,-0.97 -15.97,-3.25 -3.652,-1.43 -7.606,-3.31 -11.694,-4.67 -2.547,-0.85 -5.185,-2.08 -7.703,-0.67 -2.553,1.43 -4.519,4.52 -6.725,9.21 -0.239,0.51 0.377,0.77 0.684,1.16 0.552,0.71 1.195,1.38 1.889,2.05 3.49,3.36 8.036,6.38 12.378,9.36 5.938,4.08 11.582,8.13 15.494,12.19 2.392,2.47 4.274,5.03 5.625,7.58 l 2.52,7.18 c 0.467,2.55 0.608,4.78 0.538,6.71 l -0.719,5.03 -1.75,4.5 -3.086,4.26 -5.009,3.74 -3.938,1.54 -3.653,0.67 c -3.723,0.37 -8.571,-0.21 -14.095,-2.14 -21.671,-7.57 -62.092,-40.31 -67.157,-46.23 l -2.676,-4.29 -1.439,-5.7 0.349,-6.28 c 0.375,-2.01 1.062,-4.39 2.092,-7.04 6.351,-16.33 29.79,-49.31 33.764,-55.7 7.91,-12.71 17.416,-25.31 25.679,-38.59 4.878,-7.84 8.197,-16.66 12.179,-23.33 5.253,-8.79 11.826,-14.7 19.988,-16.94 7.505,-2.07 17.414,-1.46 30.539,6.63 z m -91.156,136.48 c 0.235,-0.12 0.473,-0.23 0.713,-0.33 -0.001,-0.02 -0.003,-0.04 -0.004,-0.06 -0.244,0.12 -0.48,0.25 -0.709,0.39 z"
   style="fill:#fff1e8;fill-opacity:1"
   id="path2" />
            </g>
        </g>
    </g></g></g></svg>
